<?xml version="1.0" encoding="utf-8"?>
<!-- Generator: Adobe Illustrator 17.1.0, SVG Export Plug-In . SVG Version: 6.00 Build 0)  -->
<!DOCTYPE svg PUBLIC "-//W3C//DTD SVG 1.1//EN" "http://www.w3.org/Graphics/SVG/1.1/DTD/svg11.dtd">
<svg version="1.1" id="Layer_1" xmlns="http://www.w3.org/2000/svg" xmlns:xlink="http://www.w3.org/1999/xlink" x="0px" y="0px"
	 viewBox="11 11 230.9 230" enable-background="new 11 11 230.9 230" xml:space="preserve">
<path fill="none" stroke="#FFFFFF" stroke-width="6" stroke-miterlimit="10" d="M126.4,22.5c-57.4,0-104,46.5-104,104
	c0,51.5,37.5,94.1,86.6,102.4v-80.7H84v-29h25.1V97.7c0-24.8,15.2-38.4,37.3-38.4c10.6,0,19.7,0.8,22.4,1.1v26l-15.4,0
	c-12.1,0-14.4,5.7-14.4,14.1v18.5h28.8l-3.8,29h-25v81.4c51.4-6.3,91.3-50,91.3-103.1C230.4,69,183.8,22.5,126.4,22.5z"/>
</svg>
