<?xml version="1.0" encoding="utf-8"?>
<!-- Generator: Adobe Illustrator 17.1.0, SVG Export Plug-In . SVG Version: 6.00 Build 0)  -->
<!DOCTYPE svg PUBLIC "-//W3C//DTD SVG 1.1//EN" "http://www.w3.org/Graphics/SVG/1.1/DTD/svg11.dtd">
<svg version="1.1" id="Layer_1" xmlns="http://www.w3.org/2000/svg" xmlns:xlink="http://www.w3.org/1999/xlink" x="0px" y="0px"
	 viewBox="-75 -71.3 200 192.6" enable-background="new -75 -71.3 200 192.6" xml:space="preserve">
<path id="path3110_1_" fill="#FFFFFF" d="M-57.6,14.6h30.3v76.6h-30.3C-57.6,91.2-57.6,14.6-57.6,14.6z M56.3-54.3V7.9h46.3v76.6
	L87.6,99.4H40.4L10.5,84h-31.3V22.8h31.3l30.3-77.1L56.3-54.3L56.3-54.3z M-20.8,16.4v-1.8c0-3.6-2.9-6.4-6.4-6.4h-30.3
	c-3.6,0-6.4,2.9-6.4,6.4v76.6c0,3.6,2.9,6.4,6.4,6.4h30.3c3.6,0,6.4-2.9,6.4-6.4v-0.8H8.9l28.6,14.8c0.9,0.4,1.9,0.7,2.9,0.7h47.2
	c1.7,0,3.3-0.7,4.6-1.9l14.9-14.9c1.2-1.2,1.9-2.9,1.9-4.6V7.9c0-3.6-3.1-6.4-6.6-6.4H62.7v-55.7c0-3.6-2.9-6.4-6.4-6.4
	c-0.1,0-0.1,0-0.2,0H40.7c-2.6,0.1-4.9,4-5.8,6.4L6.2,16.4"/>
</svg>
