<?xml version="1.0" encoding="utf-8"?>
<!-- Generator: Adobe Illustrator 17.1.0, SVG Export Plug-In . SVG Version: 6.00 Build 0)  -->
<!DOCTYPE svg PUBLIC "-//W3C//DTD SVG 1.1//EN" "http://www.w3.org/Graphics/SVG/1.1/DTD/svg11.dtd">
<svg version="1.1" id="Layer_2" xmlns="http://www.w3.org/2000/svg" xmlns:xlink="http://www.w3.org/1999/xlink" x="0px" y="0px"
	 viewBox="0 0 254 256.4" enable-background="new 0 0 254 256.4" xml:space="preserve">
<g opacity="0.65">
	<path fill="none" stroke="#FFFFFF" stroke-width="8" stroke-linecap="round" stroke-linejoin="round" stroke-miterlimit="10" d="
		M103.6,213.9c7.9-4.5,15.7-10.2,23.4-17.9c7.7,7.7,15.5,13.4,23.4,17.9"/>
	
		<line fill="none" stroke="#FFFFFF" stroke-width="8" stroke-linecap="round" stroke-linejoin="round" stroke-miterlimit="10" x1="127" y1="252.4" x2="127" y2="199.4"/>
</g>
<g>
	<defs>
		<path id="SVGID_1_" d="M127,183.4c-8.5,0-17-0.5-25.3-1.6c-8.1-1-16-2.6-23.6-4.6c-7.5-2-14.7-4.4-21.4-7.3
			c-6.7-2.8-13-6.1-18.8-9.7c-5.8-3.6-11-7.6-15.6-11.8c-4.7-4.3-8.7-8.9-11.9-13.8c-3.3-4.9-5.9-10.1-7.7-15.4
			C0.9,113.8,0,108.2,0,102.5c0-5.6,0.9-11.3,2.7-16.7c1.7-5.3,4.3-10.5,7.7-15.4c3.3-4.8,7.3-9.4,11.9-13.8
			c4.6-4.2,9.8-8.2,15.6-11.8c6.4-4,13.4-6.7,19.5-8.8c3.1-1.1,6.2-2.1,9.5-3.2c4-1.3,8-2.7,12.2-4.2c8.9-3.2,16.1-6.5,22.6-10.2
			C110,13.6,117.4,8,124.2,1.2C124.9,0.4,126,0,127,0s2.1,0.4,2.8,1.2c6.8,6.8,14.2,12.5,22.6,17.2c6.5,3.7,13.7,7,22.6,10.2
			c4.1,1.5,8.2,2.8,12.2,4.2c3.3,1.1,6.4,2.1,9.4,3.2c6,2.1,13.1,4.8,19.5,8.8c5.8,3.6,11,7.6,15.6,11.8c4.7,4.3,8.7,8.9,11.9,13.8
			c3.3,4.9,5.9,10.1,7.7,15.4c1.8,5.5,2.7,11.1,2.7,16.7c0,5.6-0.9,11.3-2.7,16.7c-1.7,5.3-4.3,10.5-7.7,15.4
			c-3.3,4.8-7.3,9.4-11.9,13.8c-4.6,4.2-9.8,8.2-15.6,11.8c-5.7,3.6-12.1,6.8-18.8,9.7c-6.7,2.8-14,5.3-21.4,7.3
			c-7.6,2-15.5,3.5-23.6,4.6C144,182.9,135.5,183.4,127,183.4z M8.1,105.9c0.3,3.7,1,7.3,2.2,10.9c1.5,4.6,3.7,9.1,6.7,13.4
			c2.9,4.3,6.5,8.5,10.7,12.4c4.2,3.9,9.1,7.6,14.4,10.9c5.4,3.4,11.3,6.4,17.6,9.1c6.4,2.7,13.3,5,20.4,6.9
			c7.3,1.9,14.8,3.4,22.6,4.4c15.9,2,32.7,2,48.6,0c7.7-1,15.3-2.5,22.6-4.4c7.1-1.9,14-4.2,20.4-6.9c6.3-2.7,12.3-5.7,17.6-9.1
			c5.4-3.3,10.2-7,14.4-10.9s7.8-8.1,10.7-12.4c2.9-4.3,5.2-8.9,6.7-13.4c1.2-3.6,1.9-7.2,2.2-10.9h-61.6c-2.2,0-4-1.8-4-4
			s1.8-4,4-4h61.5c-0.3-3.2-1-6.5-2.1-9.6c-1.5-4.6-3.7-9.1-6.7-13.4c-0.6-0.9-1.3-1.8-1.9-2.7c-0.2,0-0.5,0.1-0.7,0.1h-134
			c-2.2,0-4-1.8-4-4s1.8-4,4-4h127.7c-0.6-0.6-1.2-1.2-1.8-1.7c-4.2-3.9-9.1-7.6-14.4-10.9c-4.6-2.9-9.9-5.3-17.9-8.1
			c-3-1.1-6-2.1-9.3-3.1c-4-1.3-8.2-2.7-12.4-4.2c-9.3-3.4-16.9-6.8-23.9-10.8c-7.8-4.5-14.9-9.7-21.4-15.8
			c-6.5,6.1-13.6,11.3-21.4,15.8c-6.9,4-14.5,7.4-23.9,10.8c-4.2,1.5-8.4,2.9-12.4,4.2c-3.2,1.1-6.3,2.1-9.3,3.1
			c-8,2.8-13.3,5.2-17.9,8.1c-5.4,3.3-10.2,7-14.4,10.9c-0.6,0.6-1.2,1.2-1.8,1.7h43.8c2.2,0,4,1.8,4,4s-1.8,4-4,4H19.6
			c-0.2,0-0.5,0-0.7-0.1c-0.7,0.9-1.3,1.8-1.9,2.7c-2.9,4.3-5.2,8.9-6.7,13.4c-1,3.2-1.7,6.4-2.1,9.6h145.4c2.2,0,4,1.8,4,4
			s-1.8,4-4,4H8.1z M184.3,139.6H69.7c-2.2,0-4-1.8-4-4s1.8-4,4-4h114.6c2.2,0,4,1.8,4,4S186.5,139.6,184.3,139.6z"/>
	</defs>
	<linearGradient id="SVGID_2_" gradientUnits="userSpaceOnUse" x1="127.0144" y1="0" x2="127.0144" y2="183.4248">
		<stop  offset="0" style="stop-color:#FFFFFF"/>
		<stop  offset="1" style="stop-color:#FFFFFF;stop-opacity:0.4"/>
	</linearGradient>
	<use xlink:href="#SVGID_1_"  overflow="visible" fill="url(#SVGID_2_)"/>
	<clipPath id="SVGID_3_">
		<use xlink:href="#SVGID_1_"  overflow="visible"/>
	</clipPath>
	<linearGradient id="SVGID_4_" gradientUnits="userSpaceOnUse" x1="128.8958" y1="-21.1458" x2="128.8958" y2="188.8752">
		<stop  offset="0" style="stop-color:#FFFFFF"/>
		<stop  offset="1" style="stop-color:#FFFFFF;stop-opacity:0.4"/>
	</linearGradient>
	<rect x="-16.6" y="-21.1" clip-path="url(#SVGID_3_)" fill="url(#SVGID_4_)" width="291" height="210"/>
</g>
</svg>
